<?xml version="1.0" encoding="UTF-8"?>
<svg xmlns="http://www.w3.org/2000/svg" viewBox="0 0 500 500" width="500" height="500">
  <defs>
    <linearGradient id="bg3" x1="0%" y1="0%" x2="100%" y2="100%">
      <stop offset="0%" stop-color="#1a1a1a"/>
      <stop offset="50%" stop-color="#3d0000"/>
      <stop offset="100%" stop-color="#000"/>
    </linearGradient>
    <radialGradient id="fire3" cx="50%" cy="60%">
      <stop offset="0%" stop-color="#ff6b35" stop-opacity="0.8"/>
      <stop offset="50%" stop-color="#c1121f" stop-opacity="0.4"/>
      <stop offset="100%" stop-color="#000" stop-opacity="0"/>
    </radialGradient>
  </defs>
  <rect width="500" height="500" fill="url(#bg3)"/>
  <ellipse cx="250" cy="400" rx="280" ry="150" fill="url(#fire3)"/>
  <g stroke="#ff6b35" stroke-width="3" fill="none" opacity="0.7">
    <path d="M 100 200 Q 130 150 150 200 T 200 200"/>
    <path d="M 200 180 Q 230 130 250 180 T 300 180"/>
    <path d="M 300 200 Q 330 150 350 200 T 400 200"/>
  </g>
  <g transform="translate(250 180)" opacity="0.8">
    <path d="M -40 0 L -25 -50 L -10 0 L 5 -60 L 20 0 L 35 -45 L 40 0" stroke="#ffd700" stroke-width="2" fill="none"/>
  </g>
  <text x="250" y="280" text-anchor="middle" font-family="serif" font-size="46" fill="#ff6b35" font-weight="bold">悲怆奏鸣曲</text>
  <text x="250" y="315" text-anchor="middle" font-family="serif" font-size="20" fill="#c1121f" font-style="italic">Pathétique Sonata</text>
  <text x="250" y="440" text-anchor="middle" font-family="serif" font-size="18" fill="#ff6b35">贝多芬钢琴作品</text>
  <text x="250" y="470" text-anchor="middle" font-family="serif" font-size="14" fill="#c1121f">Op.13 · 1798</text>
</svg>
