<?xml version="1.0" encoding="UTF-8"?>
<svg xmlns="http://www.w3.org/2000/svg" viewBox="0 0 500 500" width="500" height="500">
  <defs>
    <linearGradient id="bg4" x1="0%" y1="0%" x2="100%" y2="100%">
      <stop offset="0%" stop-color="#a8e6cf"/>
      <stop offset="50%" stop-color="#88d8a3"/>
      <stop offset="100%" stop-color="#7fcdcd"/>
    </linearGradient>
    <radialGradient id="sun4" cx="50%" cy="50%">
      <stop offset="0%" stop-color="#fff9c4"/>
      <stop offset="100%" stop-color="#fff9c4" stop-opacity="0"/>
    </radialGradient>
  </defs>
  <rect width="500" height="500" fill="url(#bg4)"/>
  <circle cx="380" cy="120" r="60" fill="url(#sun4)"/>
  <circle cx="380" cy="120" r="30" fill="#fff9c4"/>
  <g transform="translate(0 350)">
    <path d="M 0 50 L 100 30 L 200 60 L 320 20 L 420 50 L 500 30 L 500 150 L 0 150 Z" fill="#2d6a4f" opacity="0.7"/>
    <path d="M 0 80 L 80 60 L 180 90 L 280 50 L 380 80 L 500 60 L 500 150 L 0 150 Z" fill="#1b4332" opacity="0.8"/>
  </g>
  <g stroke="#2d6a4f" stroke-width="2" fill="none" opacity="0.4">
    <path d="M 50 350 Q 100 200 80 100"/>
    <path d="M 100 350 Q 130 220 110 130"/>
    <path d="M 150 350 Q 170 200 160 110"/>
  </g>
  <g fill="#1b4332" opacity="0.6">
    <circle cx="80" cy="320" r="15"/>
    <circle cx="120" cy="310" r="20"/>
    <circle cx="170" cy="325" r="12"/>
    <circle cx="220" cy="315" r="18"/>
  </g>
  <text x="250" y="270" text-anchor="middle" font-family="serif" font-size="46" fill="#1b4332" font-weight="bold">田园奏鸣曲</text>
  <text x="250" y="305" text-anchor="middle" font-family="serif" font-size="20" fill="#2d6a4f" font-style="italic">Pastoral Sonata</text>
  <text x="250" y="440" text-anchor="middle" font-family="serif" font-size="18" fill="#1b4332">贝多芬钢琴作品</text>
  <text x="250" y="470" text-anchor="middle" font-family="serif" font-size="14" fill="#2d6a4f">Op.28 · 1801</text>
</svg>
