<?xml version="1.0" encoding="UTF-8"?>
<svg xmlns="http://www.w3.org/2000/svg" viewBox="0 0 500 500" width="500" height="500">
  <defs>
    <linearGradient id="bg6" x1="0%" y1="0%" x2="100%" y2="100%">
      <stop offset="0%" stop-color="#ffeaa7"/>
      <stop offset="50%" stop-color="#fab1a0"/>
      <stop offset="100%" stop-color="#fd79a8"/>
    </linearGradient>
  </defs>
  <rect width="500" height="500" fill="url(#bg6)"/>
  <g fill="#fff" opacity="0.4">
    <circle cx="100" cy="100" r="30"/>
    <circle cx="400" cy="80" r="40"/>
    <circle cx="80" cy="380" r="35"/>
    <circle cx="420" cy="400" r="25"/>
    <circle cx="250" cy="60" r="20"/>
  </g>
  <g transform="translate(250 200)">
    <g fill="#6c5ce7" opacity="0.8">
      <circle cx="-60" cy="0" r="8"/>
      <circle cx="-40" cy="-15" r="8"/>
      <circle cx="-20" cy="0" r="8"/>
      <circle cx="0" cy="-15" r="8"/>
      <circle cx="20" cy="0" r="8"/>
      <circle cx="40" cy="-15" r="8"/>
      <circle cx="60" cy="0" r="8"/>
    </g>
    <line x1="-60" y1="0" x2="-40" y2="-15" stroke="#6c5ce7" stroke-width="2" opacity="0.6"/>
    <line x1="-40" y1="-15" x2="-20" y2="0" stroke="#6c5ce7" stroke-width="2" opacity="0.6"/>
    <line x1="-20" y1="0" x2="0" y2="-15" stroke="#6c5ce7" stroke-width="2" opacity="0.6"/>
    <line x1="0" y1="-15" x2="20" y2="0" stroke="#6c5ce7" stroke-width="2" opacity="0.6"/>
    <line x1="20" y1="0" x2="40" y2="-15" stroke="#6c5ce7" stroke-width="2" opacity="0.6"/>
    <line x1="40" y1="-15" x2="60" y2="0" stroke="#6c5ce7" stroke-width="2" opacity="0.6"/>
  </g>
  <g transform="translate(250 250)">
    <text text-anchor="middle" font-family="serif" font-size="50" fill="#6c5ce7" opacity="0.7">♫</text>
  </g>
  <text x="250" y="320" text-anchor="middle" font-family="serif" font-size="42" fill="#6c3eb8" font-weight="bold">巴格泰莱舞曲</text>
  <text x="250" y="352" text-anchor="middle" font-family="serif" font-size="18" fill="#8b5cf6" font-style="italic">Bagatelles</text>
  <text x="250" y="440" text-anchor="middle" font-family="serif" font-size="18" fill="#6c3eb8">贝多芬钢琴作品</text>
  <text x="250" y="470" text-anchor="middle" font-family="serif" font-size="14" fill="#8b5cf6">Op.119 · 1822</text>
</svg>
