<?xml version="1.0" encoding="UTF-8"?>
<svg width="120px" height="50px" viewBox="0 0 120 50" version="1.1" xmlns="http://www.w3.org/2000/svg" xmlns:xlink="http://www.w3.org/1999/xlink">
    <title>20220214 可靠字标-05</title>
    <g id="页面-1" stroke="none" stroke-width="1" fill="none" fill-rule="evenodd">
        <g id="20220214-可靠字标-05" fill-rule="nonzero">
            <rect id="矩形" x="0" y="0" width="120" height="50"></rect>
            <g id="编组-13" transform="translate(15.000000, 7.000000)" fill="#00A841">
                <path d="M84.7415833,27.57 C82.6243537,27.57 80.9079999,29.2959423 80.9079999,31.425 C80.9079999,33.5540577 82.6243537,35.28 84.7415833,35.28 C86.8588129,35.28 88.5751666,33.5540577 88.5751666,31.425 C88.5751666,29.2959423 86.8588129,27.57 84.7415833,27.57 Z" id="路径"></path>
                <path d="M84.7415833,0.585 L84.7415833,0.585 C83.5248118,0.615157633 82.3727495,1.14240955 81.5509347,2.04522967 C80.72912,2.9480498 80.3084615,4.14854007 80.3859166,5.37 L81.8775833,22.995 C82.0313502,24.5337039 83.3230737,25.7027497 84.8609166,25.6950383 L84.8609166,25.6950383 C86.3987595,25.7027497 87.690483,24.5337039 87.8442499,22.995 L89.3359166,5.37 C89.4454312,4.09946675 89.0026266,2.84346971 88.1217335,1.92601914 C87.2408404,1.00856858 86.0081219,0.51950777 84.7415833,0.585 Z" id="路径"></path>
                <path d="M22.6882499,24.81 L22.6882499,10.005 C22.6882499,8.62981097 21.5796324,7.515 20.2120833,7.515 L5.29541661,7.515 C3.92786752,7.515 2.81924994,8.62981097 2.81924994,10.005 L2.81924994,24.81 C2.81924994,26.185189 3.92786752,27.3 5.29541661,27.3 L20.2120833,27.3 C21.5762446,27.29181 22.6801055,26.1817823 22.6882499,24.81 L22.6882499,24.81 Z M15.3194167,24.12 C15.3195353,24.3959098 15.1014249,24.621885 14.8271666,24.63 L10.6355833,24.63 C10.3613249,24.621885 10.1432146,24.3959098 10.1433332,24.12 L10.1433332,10.62 C10.1433332,10.346619 10.3637211,10.125 10.6355833,10.125 L14.8271666,10.125 C15.0990288,10.125 15.3194167,10.346619 15.3194167,10.62 L15.3194167,24.12 Z" id="形状"></path>
                <path d="M36.0088333,0.78 L1.32758328,0.78 C0.59437927,0.78 0,1.37769988 0,2.115 C0,2.85230012 0.59437927,3.44999997 1.32758328,3.45 L26.5367499,3.45 C26.8086121,3.45 27.0289999,3.67161905 27.0289999,3.945 L27.0289999,29.445 C27.0573159,30.2865352 26.7445441,31.103551 26.1623812,31.7087628 C25.5802183,32.3139747 24.7785887,32.6554816 23.9412499,32.655 L15.9608333,32.655 C15.2994616,32.6452814 14.7212817,33.101657 14.5735833,33.75 C14.5266312,34.1290581 14.6434023,34.5101837 14.8943518,34.7969467 C15.1453013,35.0837097 15.5063872,35.2486371 15.8862499,35.25 L27.0289999,35.25 C31.0986942,35.25 34.3978333,31.93243 34.3978333,27.84 L34.3978333,3.945 L34.3978333,3.945 C34.3978333,3.67161905 34.6182211,3.45 34.8900833,3.45 L36.0088333,3.45 C36.4831331,3.45000002 36.9214043,3.19555046 37.1585542,2.78250002 C37.3957042,2.36944957 37.3957042,1.86055043 37.1585542,1.44749998 C36.9214043,1.03444954 36.4831331,0.78 36.0088333,0.78 L36.0088333,0.78 Z" id="路径"></path>
                <path d="M71.6894999,10.5899997 L44.4218333,10.5899997 C43.751984,10.5896944 43.1105892,10.8623031 42.6440131,11.3456178 C42.177437,11.8289325 41.9254904,12.4817141 41.9456666,13.155 L41.9456666,17.4 C41.9456666,18.775189 43.0542842,19.89 44.4218333,19.89 L71.6894999,19.89 C73.057049,19.89 74.1656666,18.775189 74.1656666,17.4 L74.1656666,13.155 C74.1858429,12.4817141 73.9338962,11.8289325 73.4673201,11.3456178 C73.000744,10.8623031 72.3593492,10.5896944 71.6894999,10.5899997 L71.6894999,10.5899997 Z M66.7968333,16.59 C66.7968333,16.863381 66.5764454,17.085 66.3045833,17.085 L49.8067499,17.085 C49.5348878,17.085 49.3144999,16.863381 49.3144999,16.59 L49.3144999,13.755 C49.3144999,13.481619 49.5348878,13.26 49.8067499,13.26 L66.3045833,13.26 C66.5764454,13.26 66.7968333,13.481619 66.7968333,13.755 L66.7968333,16.59 Z" id="形状"></path>
                <path d="M42.1395833,8.85 L73.9717499,8.85 C74.704954,8.85 75.2993333,8.25230014 75.2993333,7.515 C75.2993333,6.77769986 74.704954,6.18 73.9717499,6.18 L62.2323333,6.18 C62.0964432,6.18025121 61.9664949,6.12400189 61.8732725,6.02457721 C61.78005,5.92515252 61.7318473,5.79139823 61.7400833,5.655 L61.7400833,4.905 C61.7400833,4.63161905 61.9604711,4.41 62.2323333,4.41 L72.9275833,4.41 C73.6607873,4.41 74.2551666,3.81230014 74.2551666,3.075 C74.2551666,2.33769986 73.6607873,1.74 72.9275833,1.74 L62.2323333,1.74 C61.9604711,1.74 61.7400833,1.51838095 61.7400833,1.245 L61.7400833,0.945 C61.7400833,0.423090911 61.3193429,0 60.8003333,0 L55.3109999,0 C54.7919904,0 54.3712499,0.423090911 54.3712499,0.945 L54.3712499,1.245 C54.3712499,1.51838095 54.1508621,1.74 53.8789999,1.74 L49.7769166,1.74 C49.5050544,1.74 49.2846666,1.51838095 49.2846666,1.245 C49.2846666,0.723090911 48.8639262,0.3 48.3449166,0.3 L42.8555833,0.3 C42.3365737,0.3 41.9158333,0.723090911 41.9158333,1.245 L41.9158333,1.965 C41.9158333,3.31533621 43.0044156,4.41 44.3472499,4.41 L53.8789999,4.41 C54.1508621,4.41 54.3712499,4.63161905 54.3712499,4.905 L54.3712499,5.655 C54.3712499,5.92838095 54.1508621,6.15 53.8789999,6.15 L42.1395833,6.15 C41.4063792,6.15 40.8119999,6.74769986 40.8119999,7.485 C40.8119999,8.22230014 41.4063792,8.82 42.1395833,8.82 L42.1395833,8.85 Z" id="路径"></path>
                <path d="M55.5049166,21.555 L41.1550833,21.555 C40.4218792,21.555 39.8274999,22.1526999 39.8274999,22.89 C39.8274999,23.6273001 40.4218792,24.225 41.1550833,24.225 L48.6134166,24.225 C48.8852788,24.225 49.1056666,24.446619 49.1056666,24.72 L49.1056666,25.455 C49.1057853,25.7309098 48.8876749,25.956885 48.6134166,25.965 L41.1550833,25.965 C40.4218792,25.965 39.8274999,26.5626999 39.8274999,27.3 C39.8274999,28.0373001 40.4218792,28.635 41.1550833,28.635 L48.6134166,28.635 C48.8852788,28.635 49.1056666,28.856619 49.1056666,29.13 L49.1056666,29.13 L49.1056666,29.88 C49.1056666,30.153381 48.8852788,30.375 48.6134166,30.375 L40.1109166,30.375 C39.3777126,30.375 38.7833333,30.9726999 38.7833333,31.71 L38.7833333,31.71 C38.7833333,32.4473001 39.3777126,33.045 40.1109166,33.045 L48.5388333,33.045 C48.8106954,33.045 49.0310833,33.266619 49.0310833,33.54 L49.0310833,34.335 C49.0310833,34.8569091 49.4518237,35.28 49.9708333,35.28 L55.4601666,35.28 C55.9791762,35.28 56.3999172,34.8569091 56.3999172,34.335 L56.3999172,22.5 C56.4004861,21.9951711 56.0063717,21.5790392 55.5049166,21.555 Z" id="路径"></path>
                <path d="M75.9109166,30.375 L67.5277499,30.375 C67.2558878,30.375 67.0354999,30.153381 67.0354999,29.88 L67.0354999,29.13 L67.0354999,29.13 C67.0354999,28.856619 67.2558878,28.635 67.5277499,28.635 L74.9860833,28.635 C75.7192873,28.635 76.3136666,28.0373001 76.3136666,27.3 C76.3136666,26.5626999 75.7192873,25.965 74.9860833,25.965 L67.5277499,25.965 C67.2534916,25.956885 67.0353812,25.7309098 67.0354999,25.455 L67.0354999,24.72 C67.0354999,24.446619 67.2558878,24.225 67.5277499,24.225 L74.9860833,24.225 C75.7192873,24.225 76.3136666,23.6273001 76.3136666,22.89 C76.3136666,22.1526999 75.7192873,21.555 74.9860833,21.555 L60.6064166,21.555 C60.087407,21.555 59.6666666,21.9780909 59.6666666,22.5 L59.6666666,34.335 C59.6666666,34.8569091 60.087407,35.28 60.6064166,35.28 L66.0957499,35.28 C66.6147595,35.28 67.0354999,34.8569091 67.0354999,34.335 L67.0354999,33.54 C67.0354999,33.266619 67.2558878,33.045 67.5277499,33.045 L75.9109166,33.045 C76.6441206,33.045 77.2384999,32.4473001 77.2384999,31.71 L77.2384999,31.71 C77.2384999,30.9726999 76.6441206,30.375 75.9109166,30.375 L75.9109166,30.375 Z" id="路径"></path>
            </g>
        </g>
    </g>
</svg>