<?xml version="1.0" standalone="no"?><!DOCTYPE svg PUBLIC "-//W3C//DTD SVG 1.1//EN" "http://www.w3.org/Graphics/SVG/1.1/DTD/svg11.dtd"><svg t="1780343968409" class="icon" viewBox="0 0 1024 1024" version="1.1" xmlns="http://www.w3.org/2000/svg" p-id="2619" xmlns:xlink="http://www.w3.org/1999/xlink" width="200" height="200"><path d="M375.125 806.57L217.43 648.876l-50.858 21.049 187.505 187.505zM198.201 178.746L311.979 64.96700001l-21.163-50.85900001-128.56900001 128.683z m-55.41-16.498l-128.683 128.569 50.86 21.163L178.744 198.19999999z m611.1 88.405l-83.967-84.081-21.05 50.858 69.064 69.177z m-16.497 55.41l69.177 69.063 50.858-21.049-84.081-83.968z m130.503 192.17L867.897 379.45l-50.859 21.049 0 97.735z m-50.859 27.535l0 97.735 50.859 21.05L867.89699999 525.766zM1020.473 498.233l0-181.93-50.859 21.048 0 160.882z m-50.859 27.534L969.614 686.65l50.859 21.049 0-181.93z m-196.26600001 228.125l84.08100001-83.968-50.858-21.05-69.17700001 69.064z m-55.40999999-16.49800001l-69.063 69.17700002 21.049 50.85799999 83.968-84.08100001z m53.93 53.93000001l-91.363 91.478 21.04900001 50.858 106.26799999-106.38200001z m55.40999999 16.498L933.66 701.55400001l-50.858-21.05000001-91.478 91.364z m-696.66099999-309.59l0-129.25-50.745-21.05000001 0 150.30000001z m-50.745 27.535l0 150.3 50.745-21.048L130.617 525.767z m445.895 342.13L644.551 867.897l-21.04899999-50.859-97.73500001 0z m-27.534-50.859l-97.73500001 0-21.04999999 50.85899999L498.234 867.89699999z m27.534 127.09l150.3 0-21.048-50.745-129.252 0z m-27.534-50.745L368.98 893.38299999l-21.049 50.74500001 150.3 0z m27.534 127.09l181.93 0-21.048-50.859-160.882 0z m-27.534-50.859L337.35 969.614l-21.049 50.859 181.93 0zM216.178 827.27799999L322.44599999 933.66l21.05000001-50.858-91.364-91.478z m16.498-55.40999999l-91.478-91.363-50.858 21.04900001 106.38200001 106.26799999z m-70.429 109.34l128.569 128.684 21.163-50.86L198.19999999 845.256zM178.745 825.8L64.96700001 712.021l-50.85900001 21.163 128.683 128.56900001zM400.49799999 206.962L623.50200001 206.962l21.04999999-50.85899999-265.103-1e-8z m-183.069 168.163L375.125 217.43l-21.049-50.858-187.505 187.505z m-10.46699999 248.37700001L206.962 400.49799999l-50.85899999-21.04999999-1e-8 265.103z m-65.764-280.00700001L343.495 141.198 322.44599999 90.34 90.34 322.44599999zM701.55400001 90.34l-21.05000001 50.858 202.298 202.297 50.858-21.04900001z m-332.57300001 40.277L655.02 130.61700001l21.049-50.74500001-328.136 0zM893.38299999 368.98L893.38299999 655.02l50.74500001 21.049L944.128 347.93199999zM54.386 686.65L54.386 337.35l-50.859-21.049 0 391.396zM733.184 14.109l-21.163 50.85800001L959.033 311.98l50.859-21.163z m-395.833 40.277L686.65 54.386 707.69799999 3.527l-391.39599998 0zM959.033 712.02L712.02 959.033l21.163 50.859L1009.892 733.184zM512 262.485c-137.78500001 0-249.515 111.73-249.515 249.515S374.215 761.515 512 761.515 761.515 649.785 761.515 512 649.785 262.485 512 262.485z m1.48 474.795c-126.294 0-219.82-103.196-225.28-225.28-5.462-121.628 107.405-225.28 225.28-225.28 126.292 0 219.818 103.196 225.28 225.28 5.46 121.628-107.52 225.28-225.28 225.28z" fill="#ffffff" p-id="2620"></path><path d="M517.916 282.852C641.82 286.037 741.376 387.3 741.376 512s-99.556 226.076-223.46 229.148c-1.934 0.114-3.868 0.114-5.916 0.114-63.374 0-114.688-51.314-114.688-114.688S448.626 512 512 512s114.688-51.314 114.688-114.688c0-61.326-48.242-111.388-108.772-114.46z m-42.552 343.836c0 20.252 16.384 36.636 36.636 36.636s36.636-16.384 36.636-36.636c0-20.252-16.384-36.636-36.636-36.636s-36.636 16.384-36.636 36.636z" fill="#ffffff" p-id="2621"></path><path d="M512 433.948a36.636 36.636 0 1 0 0-73.272 36.636 36.636 0 1 0 0 73.272z" fill="#ffffff" p-id="2622"></path></svg>