<?xml version="1.0" standalone="no"?><!DOCTYPE svg PUBLIC "-//W3C//DTD SVG 1.1//EN" "http://www.w3.org/Graphics/SVG/1.1/DTD/svg11.dtd"><svg t="1776704708070" class="icon" viewBox="0 0 1024 1024" version="1.1" xmlns="http://www.w3.org/2000/svg" p-id="5292" xmlns:xlink="http://www.w3.org/1999/xlink" width="200" height="200"><path d="M700.013 439.38L552 587.393V136a8 8 0 0 0-8-8h-64a8 8 0 0 0-8 8v452.963L322.418 439.38a8 8 0 0 0-11.314 0l-45.255 45.255a8 8 0 0 0 0 11.314l222.739 222.739c12.497 12.496 32.758 12.496 45.255 0l222.738-222.739a7.999 7.999 0 0 0 0-11.314l-45.255-45.255a8 8 0 0 0-11.313 0zM208 575v240h607V575h80v288c0 17.673-14.327 32-32 32H160c-17.673 0-32-14.327-32-32V575h80z" fill="#ffffff" p-id="5293"></path></svg>